<?xml version="1.0" encoding="UTF-8"?>
<svg version="1.1" xmlns="http://www.w3.org/2000/svg" width="1536" height="1024">
<path d="M0 0 C506.88 0 1013.76 0 1536 0 C1536 337.92 1536 675.84 1536 1024 C1029.12 1024 522.24 1024 0 1024 C0 686.08 0 348.16 0 0 Z " fill="#FCFCFC" transform="translate(0,0)"/>
<path d="M0 0 C1.97761858 0.92189608 3.9224247 1.91569948 5.83984375 2.95703125 C6.97357422 3.56869141 8.10730469 4.18035156 9.27539062 4.81054688 C10.49616776 5.47772919 11.71686903 6.14505031 12.9375 6.8125 C14.2060757 7.4999112 15.47495966 8.18675382 16.74414062 8.87304688 C20.50070924 10.9069377 24.25082391 12.95252358 28 15 C28.99402832 15.54188965 29.98805664 16.0837793 31.01220703 16.64208984 C34.55374312 18.57274736 38.09463955 20.50454915 41.63305664 22.44091797 C49.02444361 26.48210692 56.44668395 30.46476255 63.875 34.4375 C98.20416555 52.80586303 98.20416555 52.80586303 114 61.8125 C121.64359406 66.16841608 129.34581737 70.28490474 137.25 74.14453125 C143.59228993 77.25003149 149.7878391 80.64400503 156 84 C156 84.66 156 85.32 156 86 C155.14470703 86.43755615 154.28941406 86.8751123 153.40820312 87.32592773 C132.76431073 97.82804768 132.76431073 97.82804768 112.484375 109.0078125 C103.81324341 114.00244663 94.94031319 118.60899182 86.03823853 123.17495728 C75.87149078 128.39387102 65.76754413 133.70335322 55.75854492 139.22021484 C50.05737786 142.35395859 44.32724795 145.42770659 38.57421875 148.46484375 C37.8289241 148.85835526 37.08362946 149.25186676 36.31575012 149.65730286 C32.61268677 151.6111326 28.9076343 153.56110203 25.20043945 155.50708008 C23.81066609 156.23901237 22.42093564 156.97102617 21.03125 157.703125 C20.35680344 158.05606125 19.68235687 158.4089975 18.98747253 158.77262878 C15.60689559 160.55652902 12.29251409 162.40182867 9.03125 164.39648438 C8.39892456 164.77842957 7.76659912 165.16037476 7.1151123 165.55389404 C5.39093189 166.60500942 3.68029835 167.67825493 1.97070312 168.75292969 C-1 170 -1 170 -3.53466797 169.38964844 C-4.34822754 168.93106445 -5.16178711 168.47248047 -6 168 C-7.35859131 167.33000977 -7.35859131 167.33000977 -8.74462891 166.64648438 C-9.72866699 166.13408203 -10.71270508 165.62167969 -11.7265625 165.09375 C-13.3825647 164.23342163 -13.3825647 164.23342163 -15.07202148 163.35571289 C-16.2564057 162.73725308 -17.4407305 162.11867945 -18.625 161.5 C-19.8541753 160.85980496 -21.08342407 160.21975097 -22.31274414 159.57983398 C-25.87696918 157.72333649 -29.43864914 155.86200498 -33 154 C-33.88123535 153.53996582 -34.7624707 153.07993164 -35.67041016 152.60595703 C-44.4518918 148.01899728 -53.19452516 143.36240818 -61.92163086 138.67285156 C-62.50959442 138.3569104 -63.09755798 138.04096924 -63.70333862 137.7154541 C-64.90124389 137.07174763 -66.09909952 136.42794878 -67.29690552 135.78405762 C-77.22800837 130.44860501 -87.22110026 125.24147987 -97.24243164 120.07714844 C-105.46206799 115.82905544 -113.59422677 111.43754975 -121.7019043 106.98022461 C-127.02903541 104.05691374 -132.38800953 101.24391384 -137.84765625 98.57421875 C-144.70102842 95.15177887 -151.44970565 91.52100909 -158.21923828 87.9362793 C-159.47248665 87.27735312 -160.73356716 86.63321642 -162 86 C-162 85.34 -162 84.68 -162 84 C-161.36312256 83.67427002 -160.72624512 83.34854004 -160.07006836 83.01293945 C-148.385282 77.0226971 -136.77169581 70.96206873 -125.375 64.4375 C-116.86673282 59.56832855 -108.26095056 54.94604464 -99.55200195 50.44677734 C-90.2276235 45.62330371 -81.02353408 40.59178685 -71.81982422 35.54296875 C-66.92995708 32.86730119 -62.02728039 30.21533515 -57.125 27.5625 C-55.63722046 26.75679565 -55.63722046 26.75679565 -54.11938477 25.93481445 C-48.9851431 23.15482259 -43.84903741 20.3783231 -38.7109375 17.60546875 C-37.67928467 17.04802979 -36.64763184 16.49059082 -35.5847168 15.91625977 C-33.5505869 14.81749154 -31.5156113 13.72028732 -29.47973633 12.62475586 C-24.98375164 10.19717081 -20.51600399 7.74190927 -16.11328125 5.1484375 C-15.37851562 4.71885742 -14.64375 4.28927734 -13.88671875 3.84667969 C-12.55224587 3.06069778 -11.22471083 2.26275083 -9.90625 1.45019531 C-6.05941966 -0.81226976 -4.24381351 -1.22965758 0 0 Z " fill="#1D1E1E" transform="translate(771,209)"/>
<path d="M0 0 C3.97752457 1.32584152 6.89535756 2.33216067 10.4140625 4.29296875 C11.65712158 4.97927368 11.65712158 4.97927368 12.92529297 5.67944336 C13.81619629 6.17710205 14.70709961 6.67476074 15.625 7.1875 C17.59836725 8.27711285 19.572356 9.36560067 21.546875 10.453125 C22.59294922 11.02998047 23.63902344 11.60683594 24.71679688 12.20117188 C29.82458918 14.99967081 34.96054876 17.74499021 40.09802246 20.48852539 C53.42707721 27.60675522 66.72385345 34.78355311 80 42 C81.33925537 42.72751465 81.33925537 42.72751465 82.70556641 43.46972656 C94.57338083 49.91929391 106.40884656 56.42635757 118.22900391 62.96273804 C127.80688308 68.25829736 137.41308577 73.49843869 147.06201172 78.66381836 C147.96322754 79.14858643 148.86444336 79.63335449 149.79296875 80.1328125 C150.5614917 80.54418457 151.33001465 80.95555664 152.12182617 81.37939453 C153.07162354 81.91419434 154.0214209 82.44899414 155 83 C156.20218689 83.47974651 156.20218689 83.47974651 157.42866039 83.96918488 C160.44562493 85.36541346 162.61661329 86.66860379 165 89 C166.47384148 93.70952199 166.26732574 98.38353661 166.13525391 103.26708984 C166.1324311 104.72608241 166.13402056 106.18508917 166.13967896 107.64407349 C166.14254363 111.59525706 166.08384261 115.54339311 166.01393938 119.4938693 C165.95134099 123.62568844 165.94554569 127.75758087 165.9336853 131.88980103 C165.90262776 139.71011938 165.82060265 147.52903649 165.72019041 155.34873831 C165.60833862 164.25298359 165.55341514 173.15729652 165.50323606 182.06206965 C165.39876481 200.37550698 165.2229229 218.68764076 165 237 C160.6248883 235.58470113 156.67939977 233.93184862 152.59765625 231.8046875 C152.00288483 231.49613327 151.4081134 231.18757904 150.7953186 230.86967468 C148.88213175 229.87569983 146.97229369 228.8754764 145.0625 227.875 C143.74145903 227.18709837 142.42025069 226.49951806 141.09887695 225.81225586 C135.26047975 222.77173199 129.42963845 219.7170847 123.62939453 216.60424805 C122.98856934 216.26047119 122.34774414 215.91669434 121.6875 215.5625 C120.66172852 215.01078125 119.63595703 214.4590625 118.57910156 213.890625 C114.95274217 211.95993051 111.28195073 210.12579711 107.6015625 208.30078125 C99.26005033 204.14627601 90.96839231 199.89878685 82.6875 195.625 C81.60393219 195.066418 81.60393219 195.066418 80.49847412 194.49655151 C71.82886566 190.02717568 63.17486515 185.53134814 54.55517578 180.96630859 C46.09065381 176.49720575 37.57425127 172.12822972 29.0625 167.75 C27.92968597 167.16691574 27.92968597 167.16691574 26.77398682 166.572052 C24.56981413 165.43780635 22.3650877 164.30464483 20.16015625 163.171875 C19.51686874 162.84088303 18.87358124 162.50989105 18.21080017 162.16886902 C12.16301072 159.06534609 6.08123217 156.04061609 0 153 C0 102.51 0 52.02 0 0 Z " fill="#1E201F" transform="translate(592,307)"/>
<path d="M0 0 C0 50.16 0 100.32 0 152 C-21.63034002 163.89668701 -21.63034002 163.89668701 -32.20703125 169.10546875 C-36.01524626 170.99054006 -39.76019376 172.98332768 -43.5 175 C-48.37668809 177.6258117 -53.2855438 180.1681894 -58.25 182.625 C-65.31411133 186.12593816 -72.31733735 189.73843516 -79.3125 193.375 C-91.36864781 199.64184328 -103.44438677 205.86969832 -115.53222656 212.07519531 C-122.40419144 215.60377615 -129.27323875 219.13754431 -136.12927246 222.69700623 C-139.20313898 224.29285565 -142.27841412 225.8859809 -145.35369873 227.47909546 C-146.81917973 228.2393727 -148.28391023 229.00109843 -149.74786377 229.76431274 C-151.76886422 230.81783401 -153.79233545 231.86645548 -155.81640625 232.9140625 C-156.96568604 233.5117041 -158.11496582 234.1093457 -159.29907227 234.72509766 C-162 236 -162 236 -164 236 C-164 187.16 -164 138.32 -164 88 C-152.615 82.06 -152.615 82.06 -141 76 C-134.02971747 71.92135106 -134.02971747 71.92135106 -127.10546875 67.765625 C-124 66 -124 66 -122 66 C-121.75204898 71.3015742 -121.57103398 76.59975406 -121.45068359 81.90576172 C-121.4005102 83.70844305 -121.33234768 85.51071965 -121.24560547 87.31201172 C-120.54167158 102.3099443 -120.54167158 102.3099443 -124.20019531 106.54980469 C-127.38243975 108.49762685 -130.21636503 110 -134 110 C-134 116.27 -134 122.54 -134 129 C-131.525 127.618125 -129.05 126.23625 -126.5 124.8125 C-115.04012287 118.46863944 -103.51749472 112.23864297 -92 106 C-91.67 87.19 -91.34 68.38 -91 49 C-86.2975 46.380625 -81.595 43.76125 -76.75 41.0625 C-74.53361816 39.82318726 -74.53361816 39.82318726 -72.27246094 38.55883789 C-71.09330345 37.90474189 -69.91395423 37.25099137 -68.734375 36.59765625 C-68.12867676 36.25730347 -67.52297852 35.91695068 -66.89892578 35.56628418 C-63.94772545 33.93730405 -61.28314301 32.72948558 -58 32 C-57.76821887 43.89126559 -57.59057821 55.78199338 -57.48187828 67.67505836 C-57.42970405 73.19775843 -57.35895401 78.7189125 -57.24560547 84.24072266 C-57.13688187 89.57063322 -57.07714556 94.899058 -57.05122757 100.22999191 C-57.03276089 102.26276423 -56.99669622 104.29545582 -56.94269943 106.32759476 C-56.53718177 122.22239449 -56.53718177 122.22239449 -60.03405762 126.47177124 C-62.65113274 128.07759057 -65.08406151 129.06007818 -68 130 C-69.2753835 130.66464139 -70.53772609 131.35541629 -71.78027344 132.07958984 C-72.97182122 132.70952475 -74.16488976 133.33659054 -75.359375 133.9609375 C-76.01931458 134.3090448 -76.67925415 134.6571521 -77.35919189 135.01580811 C-79.48808869 136.13816811 -81.6189834 137.25667092 -83.75 138.375 C-86.76625369 139.96234913 -89.78159507 141.55142708 -92.796875 143.140625 C-93.55810669 143.54149323 -94.31933838 143.94236145 -95.1036377 144.3553772 C-100.35779169 147.12505345 -105.59703866 149.9214016 -110.828125 152.734375 C-111.87175201 153.29476974 -111.87175201 153.29476974 -112.9364624 153.8664856 C-116.95467747 156.02410204 -116.95467747 156.02410204 -120.96862793 158.18963623 C-122.78967711 159.17429017 -124.61329831 160.15401495 -126.4375 161.1328125 C-127.46746094 161.68855957 -128.49742187 162.24430664 -129.55859375 162.81689453 C-132 164 -132 164 -134 164 C-134 172.58 -134 181.16 -134 190 C-132.040625 188.80375 -130.08125 187.6075 -128.0625 186.375 C-113.54357844 177.61383774 -98.60577685 169.55491323 -83.78100586 161.32788086 C-73.90353925 155.84574883 -64.03123153 150.35504177 -54.1875 144.8125 C-53.24503418 144.28390381 -52.30256836 143.75530762 -51.33154297 143.21069336 C-47.63492437 141.12384881 -43.9865043 139.0444496 -40.48828125 136.63671875 C-38 135 -38 135 -36 135 C-36.01567048 134.41138498 -36.03134096 133.82276997 -36.04748631 133.21631813 C-36.42375473 118.86019671 -36.70462437 104.50451619 -36.88080692 90.14455605 C-36.96828977 83.19954455 -37.08740762 76.25783315 -37.2824707 69.31494141 C-37.47075415 62.61013122 -37.56890332 55.90944859 -37.61291313 49.20188522 C-37.64425663 46.64738463 -37.70547516 44.09306571 -37.79741096 41.54002762 C-38.47182526 22.03042495 -38.47182526 22.03042495 -34.33582497 16.9597435 C-30.31222352 13.60512075 -25.88983867 11.5391562 -20.99673843 9.75151062 C-18.40450875 8.7758755 -16.07319633 7.45954325 -13.69140625 6.0546875 C-12.31721658 5.32413754 -10.94104925 4.59728973 -9.5625 3.875 C-8.84513672 3.49085938 -8.12777344 3.10671875 -7.38867188 2.7109375 C-2.2524135 0 -2.2524135 0 0 0 Z " fill="#1E1F1E" transform="translate(944,307)"/>
<path d="M0 0 C2.45350708 1.23698727 4.88295064 2.48732906 7.28442383 3.82275391 C8.62549194 4.56332031 8.62549194 4.56332031 9.99365234 5.31884766 C11.41182251 6.10582031 11.41182251 6.10582031 12.85864258 6.90869141 C19.38114105 10.50318946 25.91019236 14.02833716 32.60864258 17.28369141 C39.60394211 20.70309898 46.32292692 24.53881247 53.06152344 28.43554688 C70.61021904 38.54846134 88.5998318 47.89971686 106.54614258 57.28369141 C106.54614258 57.94369141 106.54614258 58.60369141 106.54614258 59.28369141 C105.93432129 59.6146582 105.3225 59.945625 104.69213867 60.28662109 C91.78501897 67.27006735 78.88631887 74.2684808 66.00708008 81.30322266 C62.26487075 83.34706543 58.51979831 85.38553561 54.77270508 87.42041016 C42.9100891 93.86656189 42.9100891 93.86656189 31.17114258 100.53369141 C25.59854316 103.7525214 19.91811064 106.67564435 14.13647461 109.49560547 C13.5098291 109.80208008 12.88318359 110.10855469 12.23754883 110.42431641 C11.62411621 110.72273438 11.01068359 111.02115234 10.37866211 111.32861328 C8.47781267 112.3193038 6.69915751 113.43870435 4.88598633 114.58056641 C1.12521695 116.49833886 0.43057077 116.40109414 -3.45385742 115.28369141 C-5.60009766 114.35083008 -5.60009766 114.35083008 -7.76245117 113.20166016 C-8.58100586 112.77014648 -9.39956055 112.33863281 -10.24291992 111.89404297 C-11.1169043 111.42450195 -11.99088867 110.95496094 -12.89135742 110.47119141 C-13.80788086 109.98489258 -14.7244043 109.49859375 -15.66870117 108.99755859 C-25.15919732 103.94606149 -34.58971338 98.78329726 -44.01733398 93.61572266 C-49.14797716 90.81083396 -54.2998917 88.04543907 -59.45385742 85.28369141 C-55.76575402 80.81263868 -50.94698429 78.84816806 -45.82885742 76.40869141 C-39.61628973 73.37968382 -33.54471943 70.31462642 -27.67651367 66.65087891 C-23.3749529 64.00492764 -18.90625794 61.66319288 -14.45385742 59.28369141 C-13.69588867 58.85443359 -12.93791992 58.42517578 -12.15698242 57.98291016 C-7.11452322 55.22472289 -7.11452322 55.22472289 -4.09057617 55.49462891 C-1.00006685 56.41949244 1.5529646 57.757434 4.35864258 59.34619141 C5.33446289 59.89404297 6.3102832 60.44189453 7.31567383 61.00634766 C8.05172852 61.42787109 8.7877832 61.84939453 9.54614258 62.28369141 C6.19247281 65.081519 2.8374644 67.38909821 -0.97338867 69.51806641 C-1.9949707 70.09169922 -3.01655273 70.66533203 -4.0690918 71.25634766 C-5.12418945 71.84287109 -6.17928711 72.42939453 -7.26635742 73.03369141 C-8.34079102 73.63568359 -9.41522461 74.23767578 -10.5222168 74.85791016 C-13.163862 76.33723147 -15.80776982 77.81233571 -18.45385742 79.28369141 C-14.80768886 82.08789834 -11.04309875 84.32941463 -7.01635742 86.53369141 C-6.033125 87.09830078 -6.033125 87.09830078 -5.0300293 87.67431641 C-1.30128853 89.74675772 -1.30128853 89.74675772 2.85327148 90.0925293 C6.21821276 89.08182663 9.18913869 87.55947875 12.26098633 85.88916016 C12.90548233 85.54528259 13.54997833 85.20140503 14.21400452 84.84710693 C16.30731327 83.72807081 18.39549541 82.59982529 20.48364258 81.47119141 C21.92153222 80.6999519 23.35968492 79.92920265 24.7980957 79.15893555 C29.05292036 76.87727572 33.30078532 74.58291079 37.54614258 72.28369141 C38.16434875 71.94893799 38.78255493 71.61418457 39.41949463 71.26928711 C46.13981645 67.62825801 52.84961402 63.96829618 59.54614258 60.28369141 C57.23064426 57.72660443 54.85894546 56.20433759 51.82739258 54.57666016 C50.4274707 53.8196582 50.4274707 53.8196582 48.99926758 53.04736328 C48.02473633 52.52722656 47.05020508 52.00708984 46.04614258 51.47119141 C44.13989258 50.44384766 42.23364258 49.41650391 40.32739258 48.38916016 C39.36728271 47.87401855 38.40717285 47.35887695 37.41796875 46.828125 C34.64963428 45.339348 31.88747827 43.83991118 29.12817383 42.33447266 C28.22599121 41.84245361 27.32380859 41.35043457 26.39428711 40.84350586 C24.40564183 39.75440465 22.41985762 38.66007013 20.4362793 37.56176758 C17.21238162 35.78273691 13.97449501 34.03161061 10.73364258 32.28369141 C9.09492187 31.36910156 9.09492187 31.36910156 7.4230957 30.43603516 C6.36413086 29.87013672 5.30516602 29.30423828 4.21411133 28.72119141 C3.26818115 28.20427734 2.32225098 27.68736328 1.34765625 27.15478516 C-3.03689353 25.79146719 -5.82373733 27.48933373 -9.78955078 29.421875 C-10.90535522 30.04570068 -10.90535522 30.04570068 -12.04370117 30.68212891 C-12.89931641 31.15569824 -13.75493164 31.62926758 -14.63647461 32.1171875 C-15.54558594 32.62588379 -16.45469727 33.13458008 -17.39135742 33.65869141 C-26.35785474 38.62039551 -35.39192968 43.42453492 -44.51220703 48.09765625 C-49.83333856 50.84339659 -54.97871886 53.7723781 -60.09204102 56.88671875 C-63.5206892 58.91470355 -67.05703058 60.67537514 -70.64135742 62.40869141 C-71.96917972 63.05507997 -73.29601218 63.70350601 -74.62182617 64.35400391 C-75.26168457 64.66370117 -75.90154297 64.97339844 -76.56079102 65.29248047 C-78.47981489 66.25804888 -78.47981489 66.25804888 -80.28833008 67.48583984 C-83.27089381 69.439284 -84.82544601 70.38911842 -88.41088867 69.78759766 C-92.02975895 67.99906742 -95.60860695 66.17451239 -99.14135742 64.22119141 C-104.15095216 61.43586542 -104.15095216 61.43586542 -109.45385742 59.28369141 C-109.45385742 58.62369141 -109.45385742 57.96369141 -109.45385742 57.28369141 C-108.75752197 56.91308594 -108.06118652 56.54248047 -107.34375 56.16064453 C-93.31112533 48.68511802 -79.32561039 41.13662588 -65.42370605 33.4206543 C-54.22117155 27.20812478 -42.92609952 21.17829703 -31.58764648 15.21777344 C-24.09629805 11.27143489 -16.70442222 7.1922768 -9.37744141 2.94775391 C-8.41265869 2.39861328 -7.44787598 1.84947266 -6.45385742 1.28369141 C-5.76686768 0.83767578 -5.07987793 0.39166016 -4.37207031 -0.06787109 C-2.45385742 -0.71630859 -2.45385742 -0.71630859 0 0 Z " fill="#F9F9F9" transform="translate(769.453857421875,235.71630859375)"/>
<path d="M0 0 C10.35375 -0.0825 20.7075 -0.165 31.375 -0.25 C36.25031494 -0.30462402 36.25031494 -0.30462402 41.22412109 -0.36035156 C43.82388653 -0.372043 46.42365932 -0.38223375 49.0234375 -0.390625 C49.68566315 -0.40107849 50.34788879 -0.41153198 51.03018188 -0.42230225 C59.9518727 -0.55590114 69.03621009 -0.57446852 75.96298218 5.809021 C80.42283866 10.69815983 81.36310589 14.83020657 81.27734375 21.3671875 C80.67107107 27.12250844 78.12568082 31.29829845 73.75 35 C72.8425 35.66 71.935 36.32 71 37 C72.01320313 37.4021875 72.01320313 37.4021875 73.046875 37.8125 C78.42789149 40.17641476 82.21947887 42.07773238 84.4453125 47.6953125 C86.07454933 54.4646768 85.93906377 61.16285796 82.3984375 67.27734375 C78.28596023 72.34327245 73.29042768 74.1391429 67 75 C64.72404771 75.08382378 62.44594837 75.11782254 60.16845703 75.11352539 C59.50361738 75.11364593 58.83877773 75.11376646 58.15379143 75.11389065 C56.02176329 75.11314986 53.88982481 75.10556004 51.7578125 75.09765625 C50.44675537 75.09664917 49.13569824 75.09564209 47.78491211 75.09460449 C42.89826581 75.0893816 38.01163201 75.07542034 33.125 75.0625 C22.19375 75.041875 11.2625 75.02125 0 75 C0 50.25 0 25.5 0 0 Z " fill="#1A1C1B" transform="translate(822,587)"/>
<path d="M0 0 C13.7671875 -0.12375 13.7671875 -0.12375 27.8125 -0.25 C32.12598511 -0.30462402 32.12598511 -0.30462402 36.52661133 -0.36035156 C38.83674374 -0.37204724 41.14688446 -0.38223697 43.45703125 -0.390625 C45.21871643 -0.4213208 45.21871643 -0.4213208 47.01599121 -0.45263672 C56.9244974 -0.45678037 66.19339001 1.52622586 74 8 C78.6905991 14.21187449 79.20433865 18.70474604 79.25 26.1875 C79.270625 27.01314453 79.29125 27.83878906 79.3125 28.68945312 C79.35298571 35.11149849 78.69668274 41.01606192 74.203125 45.98828125 C73.55859375 46.42527344 72.9140625 46.86226562 72.25 47.3125 C71.29867187 47.98732422 71.29867187 47.98732422 70.328125 48.67578125 C63.70643815 52.4421434 58.8947076 53.42873964 51.34765625 53.29296875 C49.99745644 53.28660149 49.99745644 53.28660149 48.61997986 53.28010559 C45.76717214 53.26341816 42.91509137 53.22578497 40.0625 53.1875 C38.11915088 53.1724403 36.17579061 53.15875415 34.23242188 53.14648438 C29.48778122 53.11610895 24.74469674 53.05736982 20 53 C20 60.59 20 68.18 20 76 C13.4 76 6.8 76 0 76 C0 50.92 0 25.84 0 0 Z " fill="#1E1F1E" transform="translate(529,586)"/>
<path d="M0 0 C2.56288837 1.27551457 5.12512717 2.55230605 7.68701172 3.82983398 C8.76875923 4.36795841 8.76875923 4.36795841 9.87236023 4.91695404 C15.03866291 7.49494479 20.11117552 10.1984915 25.125 13.0625 C31.5210671 16.67032486 37.97328518 20.05788935 44.59375 23.234375 C45.7178125 23.81703125 46.841875 24.3996875 48 25 C48.86028809 25.30566895 49.72057617 25.61133789 50.60693359 25.92626953 C53.78246559 27.2963602 55.69892988 28.39630229 58 31 C59.27001189 36.82747826 58.94485791 42.45219721 58.625 48.375 C58.5748022 49.98553958 58.52918117 51.59622873 58.48828125 53.20703125 C58.37842265 57.14172695 58.20614866 61.06922073 58 65 C55.79557559 63.91141872 53.59271836 62.81984166 51.390625 61.7265625 C50.77525879 61.42306885 50.15989258 61.1195752 49.52587891 60.80688477 C44.58371695 58.34882661 39.8297038 55.63635881 35.109375 52.7734375 C30.83683879 50.33658896 26.39934509 48.19967254 22 46 C22 56.56 22 67.12 22 78 C30.47725221 82.34321716 30.47725221 82.34321716 38.96069336 86.67431641 C41.22808221 87.84296832 43.48317517 89.03565593 45.72827148 90.24658203 C47.74430961 91.32703765 49.78750555 92.36032821 51.86743164 93.31201172 C54.48687522 94.66783138 56.16039907 95.68810436 58 98 C59.07302854 102.67683506 58.85290837 107.10932425 58.5625 111.875 C58.5015918 113.76605469 58.5015918 113.76605469 58.43945312 115.6953125 C58.33358366 118.80081685 58.18586574 121.89842503 58 125 C53.75356804 123.69419361 49.9973933 122.06739073 46.09765625 119.9453125 C44.97012939 119.33574707 43.84260254 118.72618164 42.6809082 118.09814453 C41.47476504 117.44044269 40.26862913 116.78272757 39.0625 116.125 C36.55858374 114.76843871 34.05279316 113.41535895 31.546875 112.0625 C30.91703201 111.72195587 30.28718903 111.38141174 29.63825989 111.0305481 C22.41842932 107.13336297 15.13694372 103.35644285 7.84594727 99.59423828 C6.95447998 99.13259277 6.0630127 98.67094727 5.14453125 98.1953125 C3.97434448 97.59227295 3.97434448 97.59227295 2.78051758 96.97705078 C1 96 1 96 0 95 C-0.09526806 92.04753646 -0.12552452 89.11851579 -0.11352539 86.16577148 C-0.11367142 85.23903625 -0.11381744 84.31230103 -0.1139679 83.35748291 C-0.11326838 80.27866313 -0.10547421 77.19990303 -0.09765625 74.12109375 C-0.09579221 71.99259982 -0.09436824 69.86410547 -0.09336853 67.73561096 C-0.08954228 62.1213768 -0.07971108 56.50716832 -0.06866455 50.89294434 C-0.05845273 45.16886747 -0.0538714 39.44478647 -0.04882812 33.72070312 C-0.03808891 22.48045744 -0.0210112 11.24023085 0 0 Z " fill="#FAFAFA" transform="translate(668,374)"/>
<path d="M0 0 C24.09 0 48.18 0 73 0 C73 4.95 73 9.9 73 15 C55.51 15 38.02 15 20 15 C20 19.95 20 24.9 20 30 C34.85 30 49.7 30 65 30 C65 34.62 65 39.24 65 44 C50.15 44 35.3 44 20 44 C20 49.28 20 54.56 20 60 C37.49 60 54.98 60 73 60 C73 64.95 73 69.9 73 75 C48.91 75 24.82 75 0 75 C0 50.25 0 25.5 0 0 Z " fill="#1E201F" transform="translate(924,587)"/>
<path d="M0 0 C6.93 0 13.86 0 21 0 C21.01401855 2.46774902 21.01401855 2.46774902 21.02832031 4.98535156 C21.06816239 11.08344703 21.13390608 17.18103493 21.20751953 23.27880859 C21.23576253 25.9190418 21.25696038 28.55936008 21.27099609 31.19970703 C21.29237856 34.9929572 21.33900791 38.78518079 21.390625 42.578125 C21.39185364 43.76053772 21.39308228 44.94295044 21.39434814 46.16119385 C21.41406677 47.26203308 21.4337854 48.36287231 21.45410156 49.49707031 C21.46298401 50.46525696 21.47186646 51.4334436 21.48101807 52.43096924 C22.14473757 55.71647053 23.43855836 56.90888608 26 59 C30.91944021 60.90622801 36.74601268 60.1844263 41.9375 60.1875 C43.56461914 60.20586914 43.56461914 60.20586914 45.22460938 60.22460938 C46.27326172 60.22654297 47.32191406 60.22847656 48.40234375 60.23046875 C49.35616943 60.23457764 50.30999512 60.23868652 51.29272461 60.24291992 C54.28574058 59.97436091 56.35745039 59.43512647 59 58 C61.02740651 54.85840062 61.26705507 52.28340525 61.31884766 48.58886719 C61.33871735 47.50804871 61.35858704 46.42723022 61.37905884 45.31365967 C61.39061005 44.15312073 61.40216125 42.99258179 61.4140625 41.796875 C61.43342865 40.60394836 61.4527948 39.41102173 61.4727478 38.1819458 C61.53253267 34.37136996 61.57892527 30.5607639 61.625 26.75 C61.66318072 24.16665348 61.7022325 21.58331968 61.7421875 19 C61.83823358 12.66676993 61.9222692 6.33348027 62 0 C68.6 0 75.2 0 82 0 C82.09066407 7.55440961 82.16392422 15.10861414 82.20724869 22.66343689 C82.22805108 26.17215319 82.25623163 29.68047533 82.30175781 33.18896484 C82.35386357 37.23017993 82.37300577 41.27098629 82.390625 45.3125 C82.41127014 46.5617627 82.43191528 47.81102539 82.45318604 49.09814453 C82.45529478 57.33857046 81.50693772 62.67375587 76.2109375 69.20703125 C75.60507812 69.73683594 74.99921875 70.26664063 74.375 70.8125 C73.78460937 71.35519531 73.19421875 71.89789062 72.5859375 72.45703125 C63.5438515 77.85223362 53.70148138 77.46731849 43.50463867 77.39111328 C40.93940226 77.37501194 38.37573586 77.39103317 35.81054688 77.41015625 C24.78570561 77.42509479 15.71379258 76.9391327 6.7265625 69.7421875 C1.18665066 64.15214071 -0.1310399 57.0023556 -0.11352539 49.38354492 C-0.11344986 48.28278122 -0.11337433 47.18201752 -0.11329651 46.04789734 C-0.10813522 44.8706459 -0.10297394 43.69339447 -0.09765625 42.48046875 C-0.0962413 41.26676102 -0.09482635 40.05305328 -0.09336853 38.80256653 C-0.08777665 34.93085248 -0.07522558 31.05919653 -0.0625 27.1875 C-0.05748395 24.56054771 -0.05292123 21.93359451 -0.04882812 19.30664062 C-0.03780987 12.87107141 -0.02055075 6.43554555 0 0 Z " fill="#202221" transform="translate(719,586)"/>
<path d="M0 0 C1.14004486 0.00424484 2.28008972 0.00848969 3.4546814 0.01286316 C7.06118363 0.02952541 10.66710693 0.0671548 14.2734375 0.10546875 C16.73306479 0.12053166 19.19270093 0.13421724 21.65234375 0.14648438 C27.65126142 0.17938818 33.64975164 0.2310841 39.6484375 0.29296875 C39.6484375 5.57296875 39.6484375 10.85296875 39.6484375 16.29296875 C38.35744141 16.30755127 37.06644531 16.32213379 35.73632812 16.3371582 C30.92029926 16.39538185 26.10472621 16.47261289 21.2890625 16.55541992 C19.209711 16.58855635 17.13027198 16.61662299 15.05078125 16.6394043 C12.05170604 16.67315826 9.05342463 16.72548435 6.0546875 16.78125 C5.13353149 16.78763992 4.21237549 16.79402985 3.26330566 16.8006134 C-2.57045132 16.93178818 -7.08700936 17.68991504 -12.3515625 20.29296875 C-15.90942833 24.57546522 -14.76229935 31.43552311 -14.77709961 36.71020508 C-14.7890091 38.72145012 -14.8382285 40.72963517 -14.88867188 42.74023438 C-14.89576172 44.01447266 -14.90285156 45.28871094 -14.91015625 46.6015625 C-14.92361084 47.76486084 -14.93706543 48.92815918 -14.95092773 50.12670898 C-14.17614843 54.21962665 -12.51169356 55.67675317 -9.3515625 58.29296875 C-6.97773265 59.47988368 -5.45977357 59.44869742 -2.81005859 59.49829102 C-1.86923431 59.51823624 -0.92841003 59.53818146 0.04092407 59.55873108 C1.05866913 59.57544357 2.07641418 59.59215607 3.125 59.609375 C4.16538422 59.6301561 5.20576843 59.65093719 6.27767944 59.67234802 C9.60952999 59.73786747 12.941461 59.79673967 16.2734375 59.85546875 C18.52865424 59.89865169 20.78386277 59.9422659 23.0390625 59.98632812 C28.57543783 60.09355133 34.1118943 60.19481204 39.6484375 60.29296875 C39.6484375 65.57296875 39.6484375 70.85296875 39.6484375 76.29296875 C32.30187862 76.39238609 24.95571769 76.46469717 17.60864258 76.51269531 C15.11313041 76.53272013 12.61766462 76.55994816 10.12231445 76.59472656 C6.52022809 76.64364645 2.91876604 76.66602988 -0.68359375 76.68359375 C-1.78612991 76.70423889 -2.88866608 76.72488403 -4.02461243 76.74615479 C-13.63377603 76.74889292 -22.79056715 74.79904792 -29.93165588 67.97279358 C-34.7820644 62.23450307 -35.9631566 56.41612747 -35.91796875 49.078125 C-35.92416733 48.22294785 -35.93036591 47.36777069 -35.93675232 46.48667908 C-35.94381408 44.68912892 -35.94074062 42.89151286 -35.92797852 41.09399414 C-35.91411326 38.36545756 -35.9482344 35.64035725 -35.98632812 32.91210938 C-36.0640061 15.63850747 -36.0640061 15.63850747 -30.3515625 9.29296875 C-21.86102317 0.81789271 -11.48091465 -0.16371796 0 0 Z " fill="#1A1B1B" transform="translate(659.3515625,585.70703125)"/>
<path d="M0 0 C7.33333333 3.66666667 14.66666667 7.33333333 22 11 C22 43.01 22 75.02 22 108 C16 106 16 106 0 97 C0 64.99 0 32.98 0 0 Z " fill="#F7F7F7" transform="translate(618,347)"/>
<path d="M0 0 C4.62671431 -0.04596074 9.25263367 -0.08577059 13.87939453 -0.10986328 C15.45266405 -0.11990887 17.02591496 -0.13354781 18.59912109 -0.15087891 C20.86300252 -0.17519096 23.12663666 -0.18649747 25.390625 -0.1953125 C26.09181458 -0.20563507 26.79300415 -0.21595764 27.51544189 -0.22659302 C31.16444401 -0.22742772 33.97672961 -0.15423678 37 2 C40.10777288 6.66165932 39.73620636 11.54471087 39 17 C36.47353559 20.48242391 35.04319535 21.65226822 31 23 C28.64319787 23.08397157 26.28405919 23.10728187 23.92578125 23.09765625 C22.90003242 23.09553383 22.90003242 23.09553383 21.8535614 23.09336853 C19.67316278 23.08777876 17.49286749 23.07522822 15.3125 23.0625 C13.83268378 23.05748367 12.35286594 23.052921 10.87304688 23.04882812 C7.24862624 23.0386643 3.62442856 23.0190871 0 23 C0 15.41 0 7.82 0 0 Z " fill="#F5F5F5" transform="translate(549,602)"/>
<path d="M0 0 C5.6050325 -0.07427668 11.20977711 -0.12866208 16.81518555 -0.16479492 C18.72116081 -0.17986128 20.62710152 -0.20031824 22.53295898 -0.22631836 C25.27596576 -0.26279642 28.01851328 -0.27974792 30.76171875 -0.29296875 C32.03543587 -0.31619453 32.03543587 -0.31619453 33.33488464 -0.33988953 C38.08121586 -0.34123312 41.10809632 -0.02746167 45 3 C46 4 46 4 46.25 7.3125 C45.99178534 11.12116621 45.69676259 12.40311751 43 15 C40.2937563 15.90208123 38.76149014 16.12227599 35.98754883 16.11352539 C35.18694534 16.11344986 34.38634186 16.11337433 33.56147766 16.11329651 C32.70201035 16.10813522 31.84254303 16.10297394 30.95703125 16.09765625 C30.0734343 16.0962413 29.18983734 16.09482635 28.27946472 16.09336853 C25.45710872 16.08777069 22.63483203 16.07521861 19.8125 16.0625 C17.89908969 16.05748472 15.98567813 16.05292186 14.07226562 16.04882812 C9.38147986 16.03780197 4.69075337 16.02053883 0 16 C0 10.72 0 5.44 0 0 Z " fill="#FBFBFB" transform="translate(841,631)"/>
<path d="M0 0 C5.03591769 -0.06898517 10.07018692 -0.12868238 15.10620117 -0.16479492 C16.81817184 -0.1798534 18.53010411 -0.20030455 20.24194336 -0.22631836 C22.70696505 -0.2628319 25.17147535 -0.27975562 27.63671875 -0.29296875 C28.77919319 -0.31619453 28.77919319 -0.31619453 29.94474792 -0.33988953 C34.50061785 -0.34132258 37.34850034 0.23569894 41 3 C42.87643761 4.87643761 42.17984987 7.49805701 42.23046875 9.9921875 C42 12 42 12 40 15 C36.1784462 16.27385127 32.5931553 16.12353188 28.61328125 16.09765625 C27.79627243 16.0962413 26.97926361 16.09482635 26.13749695 16.09336853 C23.52912732 16.08777294 20.92084366 16.07522129 18.3125 16.0625 C16.54362103 16.05748443 14.77474072 16.05292162 13.00585938 16.04882812 C8.67051318 16.03865603 4.33535278 16.01907979 0 16 C0 10.72 0 5.44 0 0 Z " fill="#F4F4F4" transform="translate(841,602)"/>
<path d="M0 0 C2.75329021 1.79562405 4.52627461 3.05254922 6 6 C6.43023798 9.87214182 6.31669086 11.52496371 4.125 14.8125 C1.22424254 17.79857385 0.43881175 17.95683819 -3.8125 18.375 C-7.24119313 18.31879192 -8.00329345 17.99773575 -11 15.9375 C-13.51930235 12.23727467 -13.7066341 10.3968344 -13 6 C-9.30920537 0.34078157 -6.6962915 -0.56748233 0 0 Z " fill="#212121" transform="translate(778,688)"/>
<path d="M0 0 C2.91963173 1.98783437 4.61102978 3.4314697 5.48046875 6.9375 C5.75264826 10.82157512 5.20830309 12.67746618 3.0625 16 C-0.51991642 18.33953725 -2.69676183 18.74316342 -6.90625 18.4765625 C-9 18 -9 18 -11.5625 16 C-13.39742437 12.17059263 -14.09854009 9.15935791 -13 5 C-9.09519458 0.42852049 -5.96604812 -1.08473602 0 0 Z " fill="#191919" transform="translate(584,688)"/>
<path d="M0 0 C23.76 0 47.52 0 72 0 C72 4.95 72 9.9 72 15 C67.0236038 15.02512941 62.04724629 15.04305808 57.07080078 15.05493164 C55.38557287 15.0598929 53.70034909 15.06666403 52.01513672 15.07543945 C40.9621949 15.13146212 30.02355796 14.84818667 19 14 C19 13.67 19 13.34 19 13 C35.83 13 52.66 13 70 13 C70 10.03 70 7.06 70 4 C70.33 3.01 70.66 2.02 71 1 C47.9 1 24.8 1 1 1 C1 25.09 1 49.18 1 74 C0.67 74 0.34 74 0 74 C0 49.58 0 25.16 0 0 Z " fill="#060706" transform="translate(925,587)"/>
<path d="M0 0 C1.5675 -0.061875 3.135 -0.12375 4.75 -0.1875 C6.07257812 -0.23970703 6.07257812 -0.23970703 7.421875 -0.29296875 C10.4984863 0.05664617 11.80955505 0.8398377 14 3 C14.4137824 6.24129544 14.45825096 8.20409044 12.8125 11.0625 C12.544375 11.701875 12.27625 12.34125 12 13 C13.28184562 15.74832154 13.28184562 15.74832154 15 18 C12.6875 17.75 12.6875 17.75 10 17 C8.9739266 15.68662604 7.97272675 14.35335895 7 13 C4.90584196 12.20376178 4.90584196 12.20376178 3 12 C3 13.98 3 15.96 3 18 C2.01 18 1.02 18 0 18 C0 12.06 0 6.12 0 0 Z " fill="#3C3C3C" transform="translate(551,688)"/>
<path d="M0 0 C0.66 0 1.32 0 2 0 C2 30.36 2 60.72 2 92 C1.01 92 0.02 92 -1 92 C-0.67 91.01 -0.34 90.02 0 89 C-0.66 88.67 -1.32 88.34 -2 88 C-1.34 88 -0.68 88 0 88 C0 58.96 0 29.92 0 0 Z " fill="#121210" transform="translate(884,339)"/>
<path d="M0 0 C9.1796875 -0.1953125 9.1796875 -0.1953125 12 0 C14 2 14 2 14.25 4.875 C14 8 14 8 12.875 10.0625 C11.69460607 12.10070585 11.69460607 12.10070585 12.875 14.75 C13.24625 15.4925 13.6175 16.235 14 17 C12.68 17 11.36 17 10 17 C8.98133771 15.34467377 7.98189187 13.67739862 7 12 C4.91466367 11.12177688 4.91466367 11.12177688 3 11 C3 12.98 3 14.96 3 17 C2.01 17 1.02 17 0 17 C0 11.39 0 5.78 0 0 Z " fill="#1A1A1A" transform="translate(812,689)"/>
<path d="M0 0 C9.1796875 -0.29296875 9.1796875 -0.29296875 12 0 C14 3 14 3 13.6875 5.9375 C13 9 13 9 12.3125 11.125 C11.89416042 13.63503747 12.70741178 14.87103117 14 17 C11.625 16.8125 11.625 16.8125 9 16 C7.6875 13.4375 7.6875 13.4375 7 11 C5.68 11 4.36 11 3 11 C3 12.98 3 14.96 3 17 C2.01 17 1.02 17 0 17 C0 11.39 0 5.78 0 0 Z " fill="#1C1C1C" transform="translate(746,689)"/>
<path d="M0 0 C1.5675 -0.061875 3.135 -0.12375 4.75 -0.1875 C6.07257812 -0.23970703 6.07257812 -0.23970703 7.421875 -0.29296875 C10.50039296 0.05686284 11.80816743 0.83839961 14 3 C14.45535315 6.12242157 14.49686954 8.06836961 13 10.875 C9.74686316 12.70488947 6.68609891 12.18128355 3 12 C3 13.98 3 15.96 3 18 C2.01 18 1.02 18 0 18 C0 12.06 0 6.12 0 0 Z " fill="#373737" transform="translate(924,688)"/>
<path d="M0 0 C1.5675 -0.061875 3.135 -0.12375 4.75 -0.1875 C6.07257812 -0.23970703 6.07257812 -0.23970703 7.421875 -0.29296875 C10.50039296 0.05686284 11.80816743 0.83839961 14 3 C14.45535315 6.12242157 14.49686954 8.06836961 13 10.875 C9.74686316 12.70488947 6.68609891 12.18128355 3 12 C3 13.98 3 15.96 3 18 C2.01 18 1.02 18 0 18 C0 12.06 0 6.12 0 0 Z " fill="#343434" transform="translate(614,688)"/>
<path d="M0 0 C9.24324324 -0.48648649 9.24324324 -0.48648649 12.625 1.6875 C14.26868403 4.45187769 14.56737985 5.83888371 14 9 C13 10.8125 13 10.8125 11 12 C8.28125957 12.24667073 5.74116148 12.13481122 3 12 C3 13.98 3 15.96 3 18 C2.01 18 1.02 18 0 18 C0 12.06 0 6.12 0 0 Z " fill="#2F2F2F" transform="translate(532,688)"/>
<path d="M0 0 C10.49915863 -0.37055854 10.49915863 -0.37055854 12.83203125 1.35546875 C14.49776873 3.7008717 14.42147552 5.19016323 14 8 C13 9.8125 13 9.8125 11 11 C8.28125957 11.24667073 5.74116148 11.13481122 3 11 C3 12.98 3 14.96 3 17 C2.01 17 1.02 17 0 17 C0 11.39 0 5.78 0 0 Z " fill="#202020" transform="translate(726,689)"/>
<path d="M0 0 C1.796875 0.03515625 1.796875 0.03515625 4 1 C5.29029101 3.50659744 6.29819657 5.80790021 7.25 8.4375 C7.518125 9.13166016 7.78625 9.82582031 8.0625 10.54101562 C10 15.64672353 10 15.64672353 10 18 C9.01 18 8.02 18 7 18 C6.67 16.68 6.34 15.36 6 14 C3.03 14 0.06 14 -3 14 C-3.33 15.32 -3.66 16.64 -4 18 C-4.99 18 -5.98 18 -7 18 C-6.35534798 13.66695924 -4.81074878 10.13327935 -2.9375 6.1875 C-2.11572266 4.44533203 -2.11572266 4.44533203 -1.27734375 2.66796875 C-0.85582031 1.78753906 -0.43429687 0.90710938 0 0 Z " fill="#0C0C0C" transform="translate(967,688)"/>
<path d="M0 0 C0.67671753 -0.0004985 1.35343506 -0.00099701 2.05065918 -0.00151062 C3.47960348 0.00082702 4.90855212 0.01053742 6.33740234 0.02709961 C8.52348687 0.05069745 10.70835167 0.0476583 12.89453125 0.04101562 C23.61238578 0.08403843 23.61238578 0.08403843 27.03125 2.36328125 C15.81125 2.36328125 4.59125 2.36328125 -6.96875 2.36328125 C-6.96875 9.95328125 -6.96875 17.54328125 -6.96875 25.36328125 C3.92125 25.36328125 14.81125 25.36328125 26.03125 25.36328125 C26.03125 25.69328125 26.03125 26.02328125 26.03125 26.36328125 C21.20744198 26.38793315 16.38367033 26.40611818 11.55981445 26.41821289 C9.91755536 26.42325299 8.27530077 26.43008503 6.63305664 26.4387207 C4.27749521 26.45080051 1.92199291 26.45651264 -0.43359375 26.4609375 C-1.17214096 26.46609879 -1.91068817 26.47126007 -2.6716156 26.47657776 C-4.43773088 26.47677375 -6.20372146 26.42522844 -7.96875 26.36328125 C-10.42448406 23.90754719 -9.5483948 17.79982019 -9.71875 14.48828125 C-9.78707031 13.46863281 -9.85539063 12.44898438 -9.92578125 11.3984375 C-9.97605469 10.42003906 -10.02632812 9.44164062 -10.078125 8.43359375 C-10.12936523 7.53398926 -10.18060547 6.63438477 -10.23339844 5.70751953 C-9.96875 3.36328125 -9.96875 3.36328125 -8.89746094 1.5690918 C-5.95684805 -0.2693496 -3.44003184 -0.00811328 0 0 Z " fill="#080808" transform="translate(555.96875,599.63671875)"/>
<path d="M0 0 C0.66 0.33 1.32 0.66 2 1 C1.67 1.99 1.34 2.98 1 4 C-1.64 3.67 -4.28 3.34 -7 3 C-7 4.32 -7 5.64 -7 7 C-4.98177083 7.45572917 -2.96354167 7.91145833 -0.9453125 8.3671875 C1 9 1 9 3 11 C2.75 14.0625 2.75 14.0625 2 17 C-0.52475462 18.26237731 -2.31200466 18.09856404 -5.125 18.0625 C-6.03507813 18.05347656 -6.94515625 18.04445313 -7.8828125 18.03515625 C-8.93082031 18.01775391 -8.93082031 18.01775391 -10 18 C-10 16.68 -10 15.36 -10 14 C-7.03 14.33 -4.06 14.66 -1 15 C-1.33 14.01 -1.66 13.02 -2 12 C-3.84609289 11.20234326 -3.84609289 11.20234326 -6 10.6875 C-8.1875 9.9609375 -8.1875 9.9609375 -10 9 C-11 5.8125 -11 5.8125 -11 3 C-7.48647291 -0.372986 -4.74686863 -0.3516199 0 0 Z " fill="#1A1A1A" transform="translate(861,688)"/>
<path d="M0 0 C0.99 0.33 1.98 0.66 3 1 C2.67 1.99 2.34 2.98 2 4 C-0.64 4 -3.28 4 -6 4 C-6 4.66 -6 5.32 -6 6 C-5.15115234 6.30744141 -5.15115234 6.30744141 -4.28515625 6.62109375 C-3.55167969 6.89050781 -2.81820312 7.15992188 -2.0625 7.4375 C-1.33160156 7.70433594 -0.60070312 7.97117187 0.15234375 8.24609375 C2 9 2 9 3 10 C3.1875 12.9375 3.1875 12.9375 3 16 C1 18 1 18 -1.3828125 18.1953125 C-2.28773438 18.17210937 -3.19265625 18.14890625 -4.125 18.125 C-5.49011719 18.09792969 -5.49011719 18.09792969 -6.8828125 18.0703125 C-7.58148437 18.04710937 -8.28015625 18.02390625 -9 18 C-9.33 16.68 -9.66 15.36 -10 14 C-6.7 14.33 -3.4 14.66 0 15 C-0.636397 11.9163615 -0.636397 11.9163615 -2.8125 11.0859375 C-3.534375 10.85132813 -4.25625 10.61671875 -5 10.375 C-8.93048128 9.06951872 -8.93048128 9.06951872 -10 8 C-10.28792759 5.26468791 -10.34443368 3.58756334 -8.9375 1.1875 C-5.96608707 -0.63368857 -3.40678991 -0.24334214 0 0 Z " fill="#252525" transform="translate(879,688)"/>
<path d="M0 0 C1.875 1.125 1.875 1.125 3 3 C3.54400387 6.65259739 3.43774093 8.3433886 1.375 11.4375 C-1 13 -1 13 -4.125 12.9375 C-7 12 -7 12 -9 9 C-9.32502803 5.87973093 -9.51151479 3.85252465 -7.875 1.125 C-5.11909116 -0.52854531 -3.14924548 -0.39365568 0 0 Z " fill="#F4F4F4" transform="translate(583,691)"/>
<path d="M0 0 C1.216875 0.12375 2.43375 0.2475 3.6875 0.375 C4.3475 1.695 5.0075 3.015 5.6875 4.375 C5.06101562 4.35179687 4.43453125 4.32859375 3.7890625 4.3046875 C2.97179687 4.28664063 2.15453125 4.26859375 1.3125 4.25 C0.09433594 4.21519531 0.09433594 4.21519531 -1.1484375 4.1796875 C-3.52592243 4.16129949 -3.52592243 4.16129949 -5.3125 6.375 C-5.52926408 9.77097063 -5.39323852 12.13278445 -4.3125 15.375 C-2.0025 15.375 0.3075 15.375 2.6875 15.375 C3.0175 14.055 3.3475 12.735 3.6875 11.375 C2.6975 11.375 1.7075 11.375 0.6875 11.375 C0.6875 10.715 0.6875 10.055 0.6875 9.375 C2.6675 9.375 4.6475 9.375 6.6875 9.375 C6.6875 12.015 6.6875 14.655 6.6875 17.375 C3.20089956 19.11830022 -0.50842935 18.9456106 -4.3125 18.375 C-7.375 16.3125 -7.375 16.3125 -9.3125 13.375 C-10.13813373 8.83401447 -9.63793335 6.93433858 -7.3125 2.9375 C-4.21757037 0.29391428 -3.77941273 0.00671299 0 0 Z " fill="#121212" transform="translate(798.3125,687.625)"/>
<path d="M0 0 C3.96 0 7.92 0 12 0 C12 0.66 12 1.32 12 2 C9.03 2 6.06 2 3 2 C3 3.65 3 5.3 3 7 C5.97 7 8.94 7 12 7 C12 7.99 12 8.98 12 10 C9.03 10 6.06 10 3 10 C3 11.32 3 12.64 3 14 C6.3 14 9.6 14 13 14 C13 14.99 13 15.98 13 17 C8.71 17 4.42 17 0 17 C0 11.39 0 5.78 0 0 Z " fill="#0E0E0E" transform="translate(634,689)"/>
<path d="M0 0 C3.96 0 7.92 0 12 0 C12 0.66 12 1.32 12 2 C9.03 2 6.06 2 3 2 C3 3.65 3 5.3 3 7 C5.97 7 8.94 7 12 7 C12 7.99 12 8.98 12 10 C9.03 10 6.06 10 3 10 C3 11.32 3 12.64 3 14 C6.3 14 9.6 14 13 14 C13 14.99 13 15.98 13 17 C8.71 17 4.42 17 0 17 C0 11.39 0 5.78 0 0 Z " fill="#262626" transform="translate(832,689)"/>
<path d="M0 0 C0.66 0.33 1.32 0.66 2 1 C2 1.99 2 2.98 2 4 C-0.64 4 -3.28 4 -6 4 C-5.35932024 7.08759559 -5.35932024 7.08759559 -3.15234375 7.94921875 C-2.42144531 8.19285156 -1.69054687 8.43648437 -0.9375 8.6875 C-0.20402344 8.93886719 0.52945313 9.19023438 1.28515625 9.44921875 C1.85105469 9.63097656 2.41695312 9.81273437 3 10 C3.125 12.875 3.125 12.875 3 16 C1 18 1 18 -1.3828125 18.1953125 C-2.28773438 18.17210937 -3.19265625 18.14890625 -4.125 18.125 C-5.49011719 18.09792969 -5.49011719 18.09792969 -6.8828125 18.0703125 C-7.58148437 18.04710937 -8.28015625 18.02390625 -9 18 C-9.33 16.68 -9.66 15.36 -10 14 C-6.7 14.33 -3.4 14.66 0 15 C0 14.01 0 13.02 0 12 C-0.63808594 11.79503906 -1.27617188 11.59007812 -1.93359375 11.37890625 C-2.75988281 11.10949219 -3.58617187 10.84007812 -4.4375 10.5625 C-5.26121094 10.29566406 -6.08492187 10.02882813 -6.93359375 9.75390625 C-9 9 -9 9 -10 8 C-10.28792759 5.26468791 -10.34443368 3.58756334 -8.9375 1.1875 C-5.97227476 -0.62989611 -3.39514655 -0.24691975 0 0 Z " fill="#1D1D1D" transform="translate(605,688)"/>
<path d="M0 0 C3.0625 0.3125 3.0625 0.3125 4.9375 1.375 C6.72485303 4.45321911 6.49636742 6.84156068 6.0625 10.3125 C4.375 12.3125 4.375 12.3125 2.0625 13.3125 C-1.09837718 13.23540543 -2.46020469 12.74206578 -4.8125 10.625 C-6.34653612 7.47170352 -5.87651464 5.6351672 -4.9375 2.3125 C-2.9375 0.3125 -2.9375 0.3125 0 0 Z " fill="#F1F1F1" transform="translate(773.9375,690.6875)"/>
<path d="M0 0 C1.82180786 0.00616333 1.82180786 0.00616333 3.68041992 0.01245117 C4.65720955 0.0131385 4.65720955 0.0131385 5.6537323 0.01383972 C7.03317076 0.01686234 8.4126058 0.02474899 9.79199219 0.03710938 C11.89229591 0.05525925 13.99215566 0.05761971 16.0925293 0.05737305 C27.2729962 0.09836628 27.2729962 0.09836628 32.09838867 1.24291992 C32.09838867 1.57291992 32.09838867 1.90291992 32.09838867 2.24291992 C20.54838867 2.24291992 8.99838867 2.24291992 -2.90161133 2.24291992 C-2.90161133 9.83291992 -2.90161133 17.42291992 -2.90161133 25.24291992 C-7.19161133 24.91291992 -11.48161133 24.58291992 -15.90161133 24.24291992 C-15.90161133 23.91291992 -15.90161133 23.58291992 -15.90161133 23.24291992 C-12.27161133 23.24291992 -8.64161133 23.24291992 -4.90161133 23.24291992 C-4.92481445 21.75018555 -4.94801758 20.25745117 -4.97192383 18.71948242 C-4.99067879 16.76896657 -5.00887928 14.81844534 -5.02661133 12.86791992 C-5.05174805 11.3906543 -5.05174805 11.3906543 -5.07739258 9.88354492 C-5.08383789 8.9425293 -5.0902832 8.00151367 -5.09692383 7.03198242 C-5.10739746 6.1626709 -5.11787109 5.29335938 -5.12866211 4.39770508 C-4.75140206 0.81738551 -3.44834676 0.28869205 0 0 Z " fill="#0E0E0E" transform="translate(551.901611328125,636.757080078125)"/>
<path d="M0 0 C0 4.95 0 9.9 0 15 C-3.43770829 15.05385444 -6.87457642 15.09360344 -10.3125 15.125 C-11.28896484 15.14175781 -12.26542969 15.15851562 -13.27148438 15.17578125 C-14.67817383 15.18544922 -14.67817383 15.18544922 -16.11328125 15.1953125 C-16.97735596 15.20578613 -17.84143066 15.21625977 -18.73168945 15.22705078 C-21 15 -21 15 -24 13 C-16.74 13 -9.48 13 -2 13 C-2 9.37 -2 5.74 -2 2 C-18.83 2 -35.66 2 -53 2 C-53 1.67 -53 1.34 -53 1 C-45.61271416 0.85745091 -38.22542548 0.71504988 -30.83813477 0.57275391 C-28.32283462 0.52428579 -25.80753514 0.47578323 -23.29223633 0.42724609 C-19.68571136 0.3576577 -16.07918405 0.28819143 -12.47265625 0.21875 C-10.77424339 0.18593933 -10.77424339 0.18593933 -9.04151917 0.15246582 C-8.00051559 0.13244507 -6.95951202 0.11242432 -5.88696289 0.09179688 C-4.96540909 0.07403198 -4.04385529 0.05626709 -3.09437561 0.03796387 C-1 0 -1 0 0 0 Z " fill="#0D0D0D" transform="translate(997,647)"/>
<path d="M0 0 C2.375 1.5 2.375 1.5 4 3 C3.01 3.66 2.02 4.32 1 5 C0.67 4.67 0.34 4.34 0 4 C-2.95817107 3.74994614 -2.95817107 3.74994614 -6 4 C-8.29827312 5.87938172 -8.29827312 5.87938172 -8.3125 8.9375 C-8.19842544 11.90559166 -8.19842544 11.90559166 -7 13.9375 C-3.65791742 15.71298137 -0.65183129 14.65852695 3 14 C3 14.99 3 15.98 3 17 C-0.23176757 18.61588379 -3.50615283 18.57451407 -7 18 C-9.99028679 16.00647547 -11.57809415 14.59744505 -12.51171875 11.0625 C-12.70293629 8.81888086 -12.61632427 7.16806267 -12 5 C-8.34512483 0.82299981 -5.57030313 -0.96874837 0 0 Z " fill="#171717" transform="translate(664,688)"/>
<path d="M0 0 C1.8125 0.1875 1.8125 0.1875 4 1 C5.625 3.5 5.625 3.5 7 6 C7.66 6.33 8.32 6.66 9 7 C10.20628008 4.66785852 11.1654738 2.50357861 12 0 C13.32 0 14.64 0 16 0 C15.05916753 2.60538222 14.29612862 4.66833595 12.4375 6.75 C10.21809807 10.2238465 10.25084684 13.95185104 10 18 C8.68 18 7.36 18 6 18 C5.90203125 17.34773437 5.8040625 16.69546875 5.703125 16.0234375 C4.72597309 10.31215307 3.4651958 6.62026107 0 2 C0 1.34 0 0.68 0 0 Z " fill="#2A2A2A" transform="translate(979,688)"/>
<path d="M0 0 C4.95 0 9.9 0 15 0 C15 0.99 15 1.98 15 3 C13.02 3 11.04 3 9 3 C9 7.95 9 12.9 9 18 C8.01 18 7.02 18 6 18 C6 13.05 6 8.1 6 3 C4.02 3 2.04 3 0 3 C0 2.01 0 1.02 0 0 Z " fill="#2C2C2C" transform="translate(672,688)"/>
<path d="M0 0 C3.96 0 7.92 0 12 0 C12 1.32 12 2.64 12 4 C7.545 3.01 7.545 3.01 3 2 C3 4.31 3 6.62 3 9 C4.32 9.33 5.64 9.66 7 10 C5.35 10 3.7 10 2 10 C2 12.31 2 14.62 2 17 C1.34 17 0.68 17 0 17 C0 11.39 0 5.78 0 0 Z " fill="#161616" transform="translate(746,689)"/>
<path d="M0 0 C0.495 0.99 0.495 0.99 1 2 C3.02463255 2.65213292 3.02463255 2.65213292 5 3 C0.38417257 4.79538913 -3.42753808 5.23613605 -8.3671875 5.1953125 C-9.04677521 5.1924826 -9.72636292 5.18965271 -10.42654419 5.18673706 C-12.57621608 5.17562964 -14.72545614 5.15054391 -16.875 5.125 C-18.34113977 5.11495795 -19.80728614 5.10583425 -21.2734375 5.09765625 C-24.84909631 5.07572159 -28.42450594 5.04125814 -32 5 C-30 3 -30 3 -27.11083984 2.77294922 C-25.90637207 2.78342285 -24.7019043 2.79389648 -23.4609375 2.8046875 C-21.50800781 2.81435547 -21.50800781 2.81435547 -19.515625 2.82421875 C-18.13541405 2.84093071 -16.75520571 2.85786061 -15.375 2.875 C-13.98698548 2.88502994 -12.59896411 2.89415577 -11.2109375 2.90234375 C-7.80711974 2.92598137 -4.40364494 2.95893133 -1 3 C-0.67 2.01 -0.34 1.02 0 0 Z " fill="#131413" transform="translate(780,658)"/>
<path d="M0 0 C0.99 0 1.98 0 3 0 C3 5.28 3 10.56 3 16 C5.64 16 8.28 16 11 16 C11 16.66 11 17.32 11 18 C7.37 18 3.74 18 0 18 C0 12.06 0 6.12 0 0 Z " fill="#101010" transform="translate(944,688)"/>
<path d="M0 0 C1.98 0 3.96 0 6 0 C6 0.66 6 1.32 6 2 C5.01 2 4.02 2 3 2 C3 4.31 3 6.62 3 9 C4.65 9 6.3 9 8 9 C8 9.66 8 10.32 8 11 C6.35 11 4.7 11 3 11 C3 12.98 3 14.96 3 17 C2.01 17 1.02 17 0 17 C0 11.39 0 5.78 0 0 Z " fill="#0A0A0A" transform="translate(532,689)"/>
<path d="M0 0 C9.27734375 -0.09765625 9.27734375 -0.09765625 12 0 C13 1 13 1 13.0625 3.5625 C13.041875 4.366875 13.02125 5.17125 13 6 C12.34 6 11.68 6 11 6 C10.67 5.01 10.34 4.02 10 3 C7.36 2.67 4.72 2.34 2 2 C2 6.95 2 11.9 2 17 C1.34 17 0.68 17 0 17 C0 11.39 0 5.78 0 0 Z " fill="#0B0B0B" transform="translate(812,689)"/>
<path d="M0 0 C1.890625 0.21484375 1.890625 0.21484375 4 1 C5.046875 3.06640625 5.046875 3.06640625 5.75 5.5625 C5.99234375 6.38878906 6.2346875 7.21507812 6.484375 8.06640625 C6.65453125 8.70449219 6.8246875 9.34257813 7 10 C6.34 10 5.68 10 5 10 C5 10.66 5 11.32 5 12 C3.02 12 1.04 12 -1 12 C-0.5205537 7.78087253 0.16625119 5.20336822 3 2 C2.01 2.33 1.02 2.66 0 3 C0 2.01 0 1.02 0 0 Z " fill="#323232" transform="translate(967,688)"/>
<path d="M0 0 C0.33 0 0.66 0 1 0 C1 1.65 1 3.3 1 5 C3.97 5 6.94 5 10 5 C10 5.99 10 6.98 10 8 C7.03 8 4.06 8 1 8 C1 9.32 1 10.64 1 12 C4.3 12 7.6 12 11 12 C10.67 12.99 10.34 13.98 10 15 C10 14.34 10 13.68 10 13 C6.7 13 3.4 13 0 13 C0 8.71 0 4.42 0 0 Z " fill="#4F4F4F" transform="translate(636,691)"/>
<path d="M0 0 C0.33 0 0.66 0 1 0 C1.33 3.96 1.66 7.92 2 12 C5.3 12 8.6 12 12 12 C12 12.99 12 13.98 12 15 C8.04 15 4.08 15 0 15 C0 10.05 0 5.1 0 0 Z " fill="#1A1A1A" transform="translate(833,691)"/>
<path d="M0 0 C2.64 0 5.28 0 8 0 C8 0.33 8 0.66 8 1 C6.02 1.33 4.04 1.66 2 2 C2 4.31 2 6.62 2 9 C3.98 9 5.96 9 8 9 C7.67 9.66 7.34 10.32 7 11 C5.35 11 3.7 11 2 11 C2 12.98 2 14.96 2 17 C1.34 17 0.68 17 0 17 C0 11.39 0 5.78 0 0 Z " fill="#050505" transform="translate(615,689)"/>
<path d="M0 0 C2.625 0.375 2.625 0.375 5 1 C5.38218767 2.65614657 5.71395102 4.32457024 6 6 C5 7 5 7 1.9375 7.0625 C0.968125 7.041875 -0.00125 7.02125 -1 7 C-1.625 4.625 -1.625 4.625 -2 2 C-1.34 1.34 -0.68 0.68 0 0 Z " fill="#1C1C1C" transform="translate(901,693)"/>
<path d="M0 0 C2.5 0.125 2.5 0.125 3.5 1.125 C3.625 3.625 3.625 3.625 3.5 6.125 C2.5 7.125 2.5 7.125 0.0625 7.3125 C-2.5 7.125 -2.5 7.125 -4.5 5.125 C-3.7519084 0.18759542 -3.7519084 0.18759542 0 0 Z " fill="#1B1B1B" transform="translate(705.5,692.875)"/>
<path d="M0 0 C-3 2 -3 2 -5.125 3.125 C-8.01852525 6.01852525 -7.61157889 8.98631522 -8 13 C-8.99 13.495 -8.99 13.495 -10 14 C-11.60290203 10.79419594 -11.48117071 7.47817686 -11 4 C-8.12243286 -0.60410742 -5.14365078 -0.39566544 0 0 Z " fill="#161617" transform="translate(582,689)"/>
<path d="M0 0 C2.64 0 5.28 0 8 0 C8 0.33 8 0.66 8 1 C6.02 1 4.04 1 2 1 C2 3.64 2 6.28 2 9 C3.98 9 5.96 9 8 9 C8 9.33 8 9.66 8 10 C6.02 10 4.04 10 2 10 C2 12.31 2 14.62 2 17 C1.34 17 0.68 17 0 17 C0 11.39 0 5.78 0 0 Z " fill="#050505" transform="translate(552,689)"/>
<path d="M0 0 C2.31 0 4.62 0 7 0 C7.38218767 1.65614657 7.71395102 3.32457024 8 5 C7 6 7 6 3.4375 6.0625 C2.303125 6.041875 1.16875 6.02125 0 6 C0 4.02 0 2.04 0 0 Z " fill="#EBEBEB" transform="translate(815,691)"/>
<path d="M0 0 C2.31 0 4.62 0 7 0 C7.38218767 1.65614657 7.71395102 3.32457024 8 5 C7 6 7 6 3.4375 6.0625 C2.303125 6.041875 1.16875 6.02125 0 6 C0 4.02 0 2.04 0 0 Z " fill="#E0E0E0" transform="translate(617,691)"/>
<path d="M0 0 C2.31 0 4.62 0 7 0 C7.38218767 1.65614657 7.71395102 3.32457024 8 5 C7 6 7 6 3.4375 6.0625 C2.303125 6.041875 1.16875 6.02125 0 6 C0 4.02 0 2.04 0 0 Z " fill="#E5E5E5" transform="translate(729,691)"/>
<path d="M0 0 C1.98 0 3.96 0 6 0 C6 2.64 6 5.28 6 8 C3.04335481 9.4783226 0.25770263 9.06032783 -3 9 C-3 8.34 -3 7.68 -3 7 C-1.35 6.67 0.3 6.34 2 6 C2.33 4.68 2.66 3.36 3 2 C2.01 2 1.02 2 0 2 C0 1.34 0 0.68 0 0 Z " fill="#111111" transform="translate(799,697)"/>
<path d="M0 0 C2 2 2 2 2.125 4.625 C2.08375 5.40875 2.0425 6.1925 2 7 C3.98 7 5.96 7 8 7 C8 7.66 8 8.32 8 9 C6.02 9 4.04 9 2 9 C2 10.98 2 12.96 2 15 C1.01 15 0.02 15 -1 15 C-0.67 10.05 -0.34 5.1 0 0 Z " fill="#080808" transform="translate(727,691)"/>
<path d="M0 0 C0.33 0 0.66 0 1 0 C1 7.26 1 14.52 1 22 C-3.29 21.67 -7.58 21.34 -12 21 C-12 20.67 -12 20.34 -12 20 C-8.37 20 -4.74 20 -1 20 C-0.67 13.4 -0.34 6.8 0 0 Z " fill="#080808" transform="translate(548,640)"/>
<path d="M0 0 C1.98 0 3.96 0 6 0 C6.38218767 1.65614657 6.71395102 3.32457024 7 5 C6 6 6 6 2.9375 6.0625 C1.4834375 6.0315625 1.4834375 6.0315625 0 6 C0 4.02 0 2.04 0 0 Z " fill="#F1F1F1" transform="translate(928,691)"/>
<path d="M0 0 C1.98 0 3.96 0 6 0 C6.38218767 1.65614657 6.71395102 3.32457024 7 5 C6 6 6 6 2.9375 6.0625 C1.4834375 6.0315625 1.4834375 6.0315625 0 6 C0 4.02 0 2.04 0 0 Z " fill="#F2F2F2" transform="translate(749,691)"/>
<path d="M0 0 C1.98 0 3.96 0 6 0 C6.38218767 1.65614657 6.71395102 3.32457024 7 5 C6 6 6 6 2.9375 6.0625 C1.4834375 6.0315625 1.4834375 6.0315625 0 6 C0 4.02 0 2.04 0 0 Z " fill="#F4F4F4" transform="translate(555,691)"/>
<path d="M0 0 C1.98 0 3.96 0 6 0 C6.38218767 1.65614657 6.71395102 3.32457024 7 5 C6 6 6 6 2.9375 6.0625 C1.4834375 6.0315625 1.4834375 6.0315625 0 6 C0 4.02 0 2.04 0 0 Z " fill="#EEEEEE" transform="translate(535,691)"/>
<path d="M0 0 C0.33 0 0.66 0 1 0 C1 1.98 1 3.96 1 6 C2.98 6 4.96 6 7 6 C7 6.66 7 7.32 7 8 C5.02 8 3.04 8 1 8 C1 9.98 1 11.96 1 14 C0.34 14 -0.32 14 -1 14 C-1.02685938 11.85423363 -1.04633088 9.70837355 -1.0625 7.5625 C-1.07410156 6.36753906 -1.08570313 5.17257812 -1.09765625 3.94140625 C-1 1 -1 1 0 0 Z " fill="#060606" transform="translate(926,692)"/>
<path d="M0 0 C0.66 0.33 1.32 0.66 2 1 C0.25 4.875 0.25 4.875 -2 6 C-3.875 6.203125 -3.875 6.203125 -6 6.25 C-6.70125 6.27578125 -7.4025 6.3015625 -8.125 6.328125 C-8.74375 6.21984375 -9.3625 6.1115625 -10 6 C-10.66 5.01 -11.32 4.02 -12 3 C-10.7625 3.061875 -9.525 3.12375 -8.25 3.1875 C-5.21788698 3.20362826 -4.17751704 3.10651023 -1.5 1.5 C-1.005 1.005 -0.51 0.51 0 0 Z " fill="#101010" transform="translate(780,700)"/>
<path d="M0 0 C1.43088528 2.86177057 0.59991697 4.93375773 0 8 C-2.31 7.67 -4.62 7.34 -7 7 C-7 6.01 -7 5.02 -7 4 C-4.69 2.68 -2.38 1.36 0 0 Z " fill="#252525" transform="translate(758,310)"/>
<path d="M0 0 C0.33 0 0.66 0 1 0 C1.0825 0.94875 1.165 1.8975 1.25 2.875 C1.65074923 6.10461791 1.65074923 6.10461791 4.0625 7.375 C4.701875 7.58125 5.34125 7.7875 6 8 C4.35 8 2.7 8 1 8 C1 10.31 1 12.62 1 15 C0.34 15 -0.32 15 -1 15 C-1.02693575 12.87506859 -1.04636628 10.75004088 -1.0625 8.625 C-1.07410156 7.44164062 -1.08570313 6.25828125 -1.09765625 5.0390625 C-1 2 -1 2 0 0 Z " fill="#050505" transform="translate(747,691)"/>
<path d="M0 0 C2.64 0 5.28 0 8 0 C9.32 2.31 10.64 4.62 12 7 C7.40592168 6.50334288 7.40592168 6.50334288 5.4375 4.0625 C4.963125 3.381875 4.48875 2.70125 4 2 C1.91665365 0.7483533 1.91665365 0.7483533 0 0 Z " fill="#242425" transform="translate(554,699)"/>
<path d="M0 0 C2.97 0 5.94 0 9 0 C8.34 0.66 7.68 1.32 7 2 C5.68 2 4.36 2 3 2 C1.71553081 4.56893838 1.67022856 6.76576337 1.4375 9.625 C1.35371094 10.62789062 1.26992188 11.63078125 1.18359375 12.6640625 C1.12300781 13.43492187 1.06242188 14.20578125 1 15 C0.67 15 0.34 15 0 15 C0 10.05 0 5.1 0 0 Z " fill="#161616" transform="translate(726,689)"/>
<path d="M0 0 C3.1875 -0.3125 3.1875 -0.3125 7 0 C9.9375 2.5 9.9375 2.5 12 5 C10.125 5.625 10.125 5.625 8 6 C7.34 5.34 6.68 4.68 6 4 C5.34 3.67 4.68 3.34 4 3 C2 2 2 2 0 0 Z " fill="#333333" transform="translate(577,688)"/>
<path d="M0 0 C0.33 0 0.66 0 1 0 C1 1.98 1 3.96 1 6 C3.93443402 5.73343428 3.93443402 5.73343428 7 5 C7.66 4.01 8.32 3.02 9 2 C9.33 3.98 9.66 5.96 10 8 C8.68 8.33 7.36 8.66 6 9 C6 8.34 6 7.68 6 7 C4.02 7 2.04 7 0 7 C0 4.69 0 2.38 0 0 Z " fill="#3E3E3E" transform="translate(927,691)"/>
<path d="M0 0 C0.33 0.66 0.66 1.32 1 2 C1.66 2 2.32 2 3 2 C3.99 4.31 4.98 6.62 6 9 C4.68 9.33 3.36 9.66 2 10 C-0.4294516 6.3558226 -0.16179575 4.28758728 0 0 Z " fill="#292929" transform="translate(765,694)"/>
<path d="M0 0 C2.31 0.33 4.62 0.66 7 1 C6.67 2.32 6.34 3.64 6 5 C5.34 5 4.68 5 4 5 C4 4.34 4 3.68 4 3 C2.68 3 1.36 3 0 3 C0 4.98 0 6.96 0 9 C-0.33 9 -0.66 9 -1 9 C-1.125 2.25 -1.125 2.25 0 0 Z " fill="#2D2D2D" transform="translate(749,697)"/>
<path d="M0 0 C1.670625 0.061875 1.670625 0.061875 3.375 0.125 C2.50875 0.4653125 2.50875 0.4653125 1.625 0.8125 C-1.17838976 2.44781069 -2.62942154 4.59726728 -4.625 7.125 C-5.285 7.125 -5.945 7.125 -6.625 7.125 C-5.84042384 2.15601765 -5.49387562 0.18944399 0 0 Z " fill="#121212" transform="translate(772.625,688.875)"/>
<path d="M0 0 C0.99 0 1.98 0 3 0 C3.1875 3.3125 3.1875 3.3125 3 7 C2.01 7.99 1.02 8.98 0 10 C0 6.7 0 3.4 0 0 Z " fill="#111111" transform="translate(586,694)"/>
<path d="M0 0 C1.32 0 2.64 0 4 0 C2.79618552 2.49361571 1.54571278 4.68143083 0 7 C-0.99 7.33 -1.98 7.66 -3 8 C-1.125 2.25 -1.125 2.25 0 0 Z " fill="#1D1D1D" transform="translate(966,690)"/>
<path d="M0 0 C5.41538462 -0.36923077 5.41538462 -0.36923077 8.375 1.5 C8.91125 1.995 9.4475 2.49 10 3 C9.01 3.66 8.02 4.32 7 5 C3.875 4.3125 3.875 4.3125 1 3 C0.67 2.01 0.34 1.02 0 0 Z " fill="#2F2F2F" transform="translate(658,688)"/>
<path d="M0 0 C0.66 0.33 1.32 0.66 2 1 C0.73760288 1.86658615 -0.53527501 2.71792059 -1.8125 3.5625 C-2.87404297 4.27599609 -2.87404297 4.27599609 -3.95703125 5.00390625 C-6 6 -6 6 -9 5 C-8.67 4.01 -8.34 3.02 -8 2 C-7.05125 1.855625 -6.1025 1.71125 -5.125 1.5625 C-2.1065506 1.17064601 -2.1065506 1.17064601 0 0 Z " fill="#171717" transform="translate(843,337)"/>
<path d="M0 0 C0.33 0.66 0.66 1.32 1 2 C1.66 2.33 2.32 2.66 3 3 C2.34 4.65 1.68 6.3 1 8 C0.01 8 -0.98 8 -2 8 C-1.47731534 5.23723823 -0.89130413 2.6739124 0 0 Z " fill="#222222" transform="translate(962,698)"/>
<path d="M0 0 C6.75 -0.125 6.75 -0.125 9 1 C8.67 1.99 8.34 2.98 8 4 C5.69 3.67 3.38 3.34 1 3 C0.67 2.01 0.34 1.02 0 0 Z " fill="#343434" transform="translate(854,688)"/>
<path d="M0 0 C0.33 0.66 0.66 1.32 1 2 C1.66 2.33 2.32 2.66 3 3 C4.03145371 4.30915279 5.03542166 5.64082143 6 7 C2.22454612 5.90931332 -0.47043472 5.0916909 -3 2 C-2.01 1.34 -1.02 0.68 0 0 Z " fill="#151716" transform="translate(804,250)"/>
<path d="M0 0 C0.66 0.33 1.32 0.66 2 1 C2.625 3.5625 2.625 3.5625 3 6 C1.35 6 -0.3 6 -2 6 C-1.34 4.02 -0.68 2.04 0 0 Z " fill="#DEDEDE" transform="translate(968,693)"/>
<path d="M0 0 C2.97 0.33 5.94 0.66 9 1 C7.3125 2.5625 7.3125 2.5625 5 4 C2.25 3.6875 2.25 3.6875 0 3 C0 2.01 0 1.02 0 0 Z " fill="#414141" transform="translate(595,702)"/>
<path d="M0 0 C0 0.99 0 1.98 0 3 C-1.65 3.33 -3.3 3.66 -5 4 C-5 3.67 -5 3.34 -5 3 C-6.65 2.67 -8.3 2.34 -10 2 C-10 1.67 -10 1.34 -10 1 C-3.375 0 -3.375 0 0 0 Z " fill="#292929" transform="translate(627,696)"/>
<path d="M0 0 C1.4540625 0.0309375 1.4540625 0.0309375 2.9375 0.0625 C-2.20535714 4.49107143 -2.20535714 4.49107143 -6.0625 5.0625 C-3.64893617 0.07446809 -3.64893617 0.07446809 0 0 Z " fill="#0C0C0C" transform="translate(659.0625,688.9375)"/>
<path d="M0 0 C2.64 0 5.28 0 8 0 C8.66 1.32 9.32 2.64 10 4 C3.47692308 3.38461538 3.47692308 3.38461538 1.0625 1.4375 C0.711875 0.963125 0.36125 0.48875 0 0 Z " fill="#393939" transform="translate(794,688)"/>
<path d="M0 0 C3.375 -0.125 3.375 -0.125 7 0 C7.66 0.66 8.32 1.32 9 2 C6 4 6 4 3.3125 3.625 C2.549375 3.41875 1.78625 3.2125 1 3 C0.67 2.01 0.34 1.02 0 0 Z " fill="#3C3C3C" transform="translate(771,688)"/>
<path d="M0 0 C-0.99 1.485 -0.99 1.485 -2 3 C-2 2.34 -2 1.68 -2 1 C-4.64 1.33 -7.28 1.66 -10 2 C-6.64608848 -1.35391152 -4.35183427 -1.05855428 0 0 Z " fill="#262827" transform="translate(647,588)"/>
<path d="M0 0 C2.64 0.33 5.28 0.66 8 1 C6.3125 2.5625 6.3125 2.5625 4 4 C1.25 3.6875 1.25 3.6875 -1 3 C-0.67 2.01 -0.34 1.02 0 0 Z " fill="#454545" transform="translate(851,702)"/>
<path d="M0 0 C5.75 -0.125 5.75 -0.125 8 1 C8 1.66 8 2.32 8 3 C5.6568787 2.74438677 3.32156597 2.40729228 1 2 C0.67 1.34 0.34 0.68 0 0 Z " fill="#0D0D0D" transform="translate(598,696)"/>
<path d="M0 0 C1.98 0.99 1.98 0.99 4 2 C4 3.98 4 5.96 4 8 C0 3.375 0 3.375 0 0 Z " fill="#121212" transform="translate(934,689)"/>
<path d="M0 0 C0.66 0.33 1.32 0.66 2 1 C1.01 1.33 0.02 1.66 -1 2 C-1.73323796 4.01508358 -1.73323796 4.01508358 -2 6 C-2.99 5.67 -3.98 5.34 -5 5 C-4 2 -4 2 -2.0625 0.75 C-1.381875 0.5025 -0.70125 0.255 0 0 Z " fill="#171715" transform="translate(875,344)"/>
<path d="M0 0 C0.66 0 1.32 0 2 0 C2.33 2.31 2.66 4.62 3 7 C2.01 7.495 2.01 7.495 1 8 C-0.35439668 5.29120665 -0.06501451 2.99066732 0 0 Z " fill="#0A0A09" transform="translate(571,695)"/>
<path d="M0 0 C-0.33 1.65 -0.66 3.3 -1 5 C-2.32 4.67 -3.64 4.34 -5 4 C-4.67 3.01 -4.34 2.02 -4 1 C-2 0 -2 0 0 0 Z " fill="#2C2C2C" transform="translate(760,692)"/>
<path d="M0 0 C2.875 -0.125 2.875 -0.125 6 0 C6.66 0.66 7.32 1.32 8 2 C5.04335481 3.4783226 2.25770263 3.06032783 -1 3 C-0.67 2.01 -0.34 1.02 0 0 Z " fill="#252726" transform="translate(742,660)"/>
<path d="M0 0 C2.75 0.8125 2.75 0.8125 5 2 C4.34 2.66 3.68 3.32 3 4 C-0.625 3.625 -0.625 3.625 -4 3 C-2.3125 1.375 -2.3125 1.375 0 0 Z " fill="#242625" transform="translate(892,657)"/>
<path d="M0 0 C0 0.99 0 1.98 0 3 C-2.5 4.6875 -2.5 4.6875 -5 6 C-5.33 5.01 -5.66 4.02 -6 3 C-4.02 2.01 -2.04 1.02 0 0 Z " fill="#272727" transform="translate(786,392)"/>
</svg>
